<svg xmlns="http://www.w3.org/2000/svg" width="48" height="48" viewBox="0 0 48 48">
  <path fill="#FDD401" fill-rule="evenodd" d="M24,0 C37.254834,0 48,10.745166 48,24 C48,37.254834 37.254834,48 24,48 C10.745166,48 0,37.254834 0,24 C0,10.745166 10.745166,0 24,0 Z M23.3543247,14.0225523 L6.45269286,18.7179535 C6.18536104,18.7925098 6,19.0355387 6,19.3131684 C6,19.590798 6.18494913,19.8342388 6.45269286,19.9083833 L13.1273381,21.7624056 L13.1273381,29.4948445 C13.1273381,29.8268468 13.389315,30.0991215 13.7200815,30.1123028 C14.964472,30.1621443 16.234813,30.3462696 17.4973277,30.6597357 C19.6615208,31.1981066 21.6424125,32.0923706 23.0758713,33.1785863 C23.1829687,33.2597333 23.3139572,33.3042199 23.4490648,33.3042199 L23.6220685,33.3042199 C23.7571761,33.3042199 23.8881645,33.2601452 23.995262,33.1785863 C25.4283089,32.0919587 27.4096125,31.1976947 29.5738056,30.6597357 C30.8359084,30.3462696 32.1062494,30.1621443 33.3510518,30.1123028 C33.6822302,30.0991215 33.9437952,29.8268468 33.9437952,29.4948445 L33.9437952,21.7537554 L39.5182197,20.2049609 L39.5182197,23.1060672 C38.8117881,23.340446 38.2977202,24.0040385 38.2977202,24.7924408 L38.2977202,27.9522287 L42,27.9522287 L42,24.7924408 C42.0008219,23.9949764 41.4739846,23.3256171 40.7547838,23.0986528 L40.7547838,19.8305316 C40.9281993,19.7189031 41.039416,19.5273633 41.039416,19.3131684 C41.039416,19.0355387 40.8544668,18.7920979 40.587135,18.7179535 L23.6850912,14.0225523 C23.5771699,13.9924826 23.4630699,13.9924826 23.3543247,14.0225523 Z M32.7080549,22.0972912 L32.7080549,28.9111632 C31.5719977,28.9923101 30.4198758,29.1768474 29.2764041,29.4614795 C27.0590741,30.0122078 25.0827135,30.8813451 23.5359786,31.9836255 C21.9892436,30.8813451 20.012883,30.0122078 17.7951411,29.4614795 C16.6520813,29.1768474 15.4999594,28.9923101 14.3630784,28.9111632 L14.3630784,22.1059414 L23.3543247,24.6037845 C23.4086973,24.6186133 23.4643056,24.6264397 23.5199139,24.6264397 C23.5755222,24.6264397 23.6311306,24.6186133 23.6846793,24.6037845 L32.7080549,22.0972912 Z M40.2295941,24.2445959 C40.5249361,24.2445959 40.7654935,24.4900964 40.7654935,24.7924408 L40.7654935,26.7164884 L39.5342843,26.7164884 L39.5342843,24.7924408 C39.5342843,24.4900964 39.7744298,24.2445959 40.0701837,24.2445959 L40.2295941,24.2445959 Z M23.5203258,15.2591164 L35.6750673,18.6355708 L23.9771378,18.6355708 C23.6360735,18.6355708 23.3592677,18.9119647 23.3592677,19.2534409 C23.3592677,19.5949171 23.6360735,19.8713111 23.9771378,19.8713111 L36.1034573,19.8713111 L23.5199139,23.3672203 L8.92623301,19.3131684 L23.5203258,15.2591164 Z"/>
</svg>
