<svg xmlns="http://www.w3.org/2000/svg" width="48" height="48" viewBox="0 0 48 48">
  <path fill="#FDD401" fill-rule="evenodd" d="M24,0 C37.254834,0 48,10.745166 48,24 C48,37.254834 37.254834,48 24,48 C10.745166,48 0,37.254834 0,24 C0,10.745166 10.745166,0 24,0 Z M11.5765815,10 C11.0381434,10 10.6011502,10.4369932 10.6011502,10.9754313 L10.6011502,33.3719848 L8.97543132,33.3719848 C8.43699323,33.3719848 8,33.808978 8,34.3474161 C8,34.8858542 8.43699323,35.3228474 8.97543132,35.3228474 L10.6011502,35.3228474 L10.6011502,36.8022516 C10.6011502,37.3406897 11.0381434,37.7776829 11.5765815,37.7776829 C12.1150196,37.7776829 12.5520128,37.3406897 12.5520128,36.8022516 L12.5520128,35.3228474 L39.0245687,35.3228474 C39.5630068,35.3228474 40,34.8858542 40,34.3474161 C40,33.808978 39.5630068,33.3719848 39.0239184,33.3719848 L12.5520128,33.3719848 L12.5520128,10.9754313 C12.5520128,10.4369932 12.1150196,10 11.5765815,10 Z M38.4698734,13.1890101 L33.4366478,13.8523034 L35.3855596,14.8934138 L27.5736552,22.7033673 L23.2232315,20.6282997 C22.851267,20.4520718 22.4064704,20.5268548 22.113841,20.818834 L14.5015749,28.4311 C14.1205064,28.8121685 14.1205064,29.4292914 14.5015749,29.8103599 C14.6921092,30.0008941 14.9411693,30.0964864 15.1908797,30.0964864 C15.4405901,30.0964864 15.6903006,30.0015444 15.8808348,29.8110102 L23.0060355,22.6858095 L27.3564592,24.7608771 C27.7290739,24.9397062 28.1738706,24.8636225 28.4658497,24.5703428 L36.7641692,16.2720234 L37.8059298,18.2209352 L38.4698734,13.1890101 Z"/>
</svg>
