<svg xmlns="http://www.w3.org/2000/svg" width="48" height="41" viewBox="0 0 48 41">
  <path fill="none" stroke="#000" stroke-width="2" d="M39.8658973,2.30427303 L39.8659179,2.30428297 C34.7547016,-0.164053964 28.683555,0.790774985 24.7666136,5.47799398 L23.9994027,6.39607916 L23.2320387,5.47812188 C19.313884,0.791038894 13.2391856,-0.164218703 8.13274779,2.30422491 C2.67981102,4.93848524 0.0206164857,10.430494 1.32923598,16.3578746 C1.91361309,19.0116789 3.23141975,21.3694021 5.26758309,23.4137766 L23.6031581,39.7361506 C23.7158383,39.8363281 23.8557742,39.8888889 23.9992726,39.8888889 C24.1427709,39.8888889 24.2827069,39.8363281 24.3948069,39.7366667 L42.7581169,23.3877553 C44.773685,21.3638504 46.0863321,19.0029178 46.6709944,16.3581691 C47.979419,10.4309291 45.3191294,4.93793198 39.8658973,2.30427303 Z"/>
</svg>
