<svg xmlns="http://www.w3.org/2000/svg" width="47" height="43" viewBox="0 0 47 43">
  <path d="M20.3800048,20.0154071 C20.6409039,19.657121 21.1438616,19.5774411 21.5033923,19.8374372 C21.8629229,20.0974333 21.9428795,20.59865 21.6819803,20.9569361 L15.5355593,29.3976573 C15.3842462,29.6054517 15.1422044,29.7284385 14.8845716,29.7284385 L7.38642952,29.7284385 C6.25702305,29.7284385 5.55665952,30.4895871 5.54225608,31.5097946 C5.52787501,32.5284214 6.20197528,33.2685986 7.38642952,33.2685986 L16.2683512,33.2705881 C16.5840193,33.2927934 17.3471358,32.6176582 18.5062105,31.1987383 C18.6257589,31.0523891 18.7084448,30.9499981 18.9119341,30.6967511 C19.8245802,29.5595597 20.0111311,29.332246 20.4028521,28.9036869 C20.7019874,28.5764205 21.210708,28.5527763 21.5391112,28.8508761 C21.8675145,29.148976 21.8912408,29.6559356 21.5921055,29.983202 C21.2342568,30.3747033 21.0527268,30.595899 20.1682298,31.6980156 C19.9621228,31.9545245 19.8767832,32.0602018 19.7537709,32.2107914 C18.1822374,34.1346363 17.2632693,34.9476547 16.2117159,34.8716899 L7.38642952,34.8716899 C5.2734105,34.8716899 3.90715316,33.3715088 3.93375547,31.4872425 C3.96005553,29.6243892 5.33938458,28.1253471 7.38642952,28.1253471 L14.4744543,28.1253471 L20.3800048,20.0154071 Z M31.8467507,32.5546871 C32.3838163,31.52979 32.2055649,30.5573451 31.3980799,29.5218767 L26.5899745,23.8041843 C26.3482663,23.5167503 26.3388562,23.1007257 26.5673225,22.8027303 L30.9608279,17.0732191 C31.5730751,16.204249 32.6099227,16.2371884 33.216266,17.0539561 L36.024851,20.7449968 C36.6767381,21.5940755 36.7199448,21.6194681 37.485714,21.6194917 L44.4638035,21.6729045 C45.0618676,21.6729045 45.3935907,21.3026447 45.3913153,20.7623007 C45.3890106,20.2205774 45.0514052,19.844935 44.4638035,19.844935 L40.0936111,19.844935 C38.8076213,19.844935 38.1075062,19.6049008 37.3944566,18.6390009 L34.1020177,13.7392032 C32.9185312,12.1861274 31.0936458,11.297341 29.4474112,11.297341 L20.2979564,11.2966533 C19.593749,11.3257422 19.1671456,11.4997214 18.8597291,11.8467221 L14.602468,17.5121113 C14.2574981,17.9252878 14.3610341,18.439143 14.8147534,18.7700847 C15.3022122,19.125636 15.8940806,19.0437202 16.4011146,18.3687023 L20.0340047,13.5772404 C20.1860186,13.3767474 20.4235853,13.2589014 20.6757469,13.2589014 L23.7837338,13.2591026 C25.3501084,13.2940819 26.1888295,14.8643186 25.0750356,16.2137892 L21.54991,21.1091754 C20.7996866,22.7694888 21.0691813,24.1691653 21.9849409,25.3651662 C22.3148676,25.7960574 22.6414812,26.090744 22.9347833,26.308563 L28.1271797,31.3449416 C28.3667846,31.5773471 28.437121,31.9332359 28.3038435,32.238827 L25.4329332,38.8213357 C24.3355147,41.2480068 27.0917521,42.53042 28.4357381,40.0686721 L31.8467507,32.5546871 Z M32.6494637,28.5149459 C33.8327846,30.0310922 34.1311104,31.6585989 33.292603,33.2559751 L29.8898407,40.7548802 L29.8659867,40.8030765 C27.5646063,45.0848557 21.9988912,42.5131757 23.96196,38.1725075 L26.6073996,32.106798 L21.9112902,27.538741 C21.5919335,27.3150757 21.1473395,26.9139415 20.7060585,26.3376194 C19.4560653,24.7051023 19.0690626,22.695124 20.1618183,20.3144285 L23.7986171,15.2396227 C24.057182,14.9256802 24.0263809,14.868015 23.7657142,14.8619928 L21.0761234,14.8619928 L17.6867758,19.3322311 C16.649123,20.7136931 15.0577463,20.9339429 13.8646345,20.06369 C12.7034851,19.2167505 12.389139,17.6566322 13.3402777,16.5190888 L17.6102402,10.838858 C18.2712808,10.0852006 19.1151673,9.74104318 20.2646449,9.69424966 L29.4474112,9.69424966 C31.5930322,9.69424966 33.8932787,10.8145544 35.4108045,12.8083077 L38.7102542,17.7174459 C39.0403477,18.1639686 39.2674883,18.2418437 40.0936111,18.2418437 L44.4638035,18.2418437 C45.9807719,18.2418437 46.9940816,19.3693198 46.9999746,20.7555388 C47.0058394,22.1471832 45.9945139,23.2759958 44.4576284,23.2759722 L37.4795389,23.2225594 C36.1691492,23.2225594 35.681488,22.9359599 34.7451417,21.7163629 L32.094954,18.2334127 L28.236388,23.2662563 L32.6494637,28.5149459 Z M35.4888224,1.60309137 C33.6236654,1.60309137 32.1128711,3.10921196 32.1128711,4.96735667 C32.1128711,6.82550143 33.6236654,8.33162197 35.4888224,8.33162197 C37.3520242,8.33162197 38.8625395,6.82522332 38.8625395,4.96735667 C38.8625395,3.10949003 37.3520242,1.60309137 35.4888224,1.60309137 Z M35.4888224,0 C38.2407285,0 40.4711992,2.22439207 40.4711992,4.96735667 C40.4711992,7.71032128 38.2407285,9.93471335 35.4888224,9.93471335 C32.7350941,9.93471335 30.5042113,7.71073183 30.5042113,4.96735667 C30.5042113,2.22398151 32.7350941,0 35.4888224,0 Z M7.41770903,8.25369394 L14.9560675,8.25369394 C16.0285075,8.25369394 16.0285075,9.85678531 14.9560675,9.85678531 L7.41770903,9.85678531 C6.34526918,9.85678531 6.34526918,8.25369394 7.41770903,8.25369394 Z M0.804329897,15.0312079 L10.3110624,15.0312079 C11.3835023,15.0312079 11.3835023,16.6342993 10.3110624,16.6342993 L0.804329897,16.6342993 C-0.268109966,16.6342993 -0.268109966,15.0312079 0.804329897,15.0312079 Z M4.13559622,21.7018492 L11.5667108,21.7018492 C12.6391506,21.7018492 12.6391506,23.3049405 11.5667108,23.3049405 L4.13559622,23.3049405 C3.06315636,23.3049405 3.06315636,21.7018492 4.13559622,21.7018492 Z M7.41770903,9.85678531 L7.41770903,8.25369394 L14.9560675,8.25369394 L14.9560675,9.85678531 L7.41770903,9.85678531 Z M0.804329897,16.6342993 L0.804329897,15.0312079 L10.3110624,15.0312079 L10.3110624,16.6342993 L0.804329897,16.6342993 Z"/>
</svg>
