<svg xmlns="http://www.w3.org/2000/svg" width="44" height="48" viewBox="0 0 44 48">
  <path stroke="#000" stroke-width=".5" d="M12.3404651,47.7231628 C12.2461395,47.7231628 12.1506977,47.7036279 12.0591628,47.6623256 C11.7147907,47.5071628 11.5618605,47.1019535 11.7175814,46.7575814 L16.3903256,36.415814 L5.45581395,36.415814 C5.07795349,36.415814 4.77209302,36.1099535 4.77209302,35.732093 C4.77209302,35.3542326 5.07795349,35.0483721 5.45581395,35.0483721 L38.6651163,35.0483721 C39.0429767,35.0483721 39.3488372,35.3542326 39.3488372,35.732093 C39.3488372,36.1099535 39.0429767,36.415814 38.6651163,36.415814 L27.531907,36.415814 L32.2035349,46.7374884 C32.3592558,47.0813023 32.2063256,47.4865116 31.8625116,47.6422326 C31.5186977,47.7968372 31.1134884,47.6450233 30.9577674,47.3012093 L26.0310698,36.415814 L17.8911628,36.415814 L12.963907,47.3207442 C12.8494884,47.5735814 12.6011163,47.7231628 12.3404651,47.7231628 Z M38.256,34.072186 L5.84427907,34.072186 C2.93134884,34.072186 0.279069767,31.5477209 0.279069767,28.7748837 L0.279069767,11.9425116 C0.279069767,8.93748837 3.15683721,6.91869767 5.84427907,6.91869767 L15.3209302,6.91869767 L15.3209302,4.47683721 C15.3209302,4.09897674 15.6267907,3.79311628 16.0046512,3.79311628 L18.6418605,3.79311628 L18.6418605,1.87981395 C18.6418605,0.276837209 20.9626047,0.276837209 21.836093,0.276837209 L21.9064186,0.276837209 C24.3147907,0.276837209 24.5023256,1.50362791 24.5023256,1.87981395 L24.5023256,3.79311628 L27.3348837,3.79311628 C27.7127442,3.79311628 28.0186047,4.09897674 28.0186047,4.47683721 L28.0186047,6.91869767 L38.256,6.91869767 C41.1064186,6.91869767 43.255814,9.07869767 43.255814,11.9425116 L43.255814,28.7748837 C43.255814,31.6956279 41.0126512,34.072186 38.256,34.072186 Z M5.84427907,8.28613953 C3.85897674,8.28613953 1.64651163,9.78753488 1.64651163,11.9425116 L1.64651163,28.7748837 C1.64651163,30.7947907 3.68651163,32.7047442 5.84427907,32.7047442 L38.256,32.7047442 C40.2586047,32.7047442 41.8883721,30.9421395 41.8883721,28.7748837 L41.8883721,11.9425116 C41.8883721,9.85786047 40.3266977,8.28613953 38.256,8.28613953 L5.84427907,8.28613953 Z M16.6883721,6.91869767 L26.6511628,6.91869767 L26.6511628,5.16055814 L23.8186047,5.16055814 C23.4407442,5.16055814 23.1348837,4.85469767 23.1348837,4.47683721 L23.1348837,1.87981395 C23.0969302,1.83627907 22.772093,1.64483721 21.9064186,1.64483721 L21.836093,1.64483721 C20.2604651,1.64483721 19.9914419,1.92781395 19.9892093,1.93060465 L20.0098605,4.47739535 C20.0098605,4.85525581 19.704,5.16111628 19.3261395,5.16111628 L16.6883721,5.16111628 L16.6883721,6.91869767 Z M9.04297674,27.847814 C8.86548837,27.847814 8.68744186,27.7786047 8.55404651,27.6418605 C8.29004651,27.3717209 8.29562791,26.9386047 8.56576744,26.6751628 L16.796093,18.640186 C16.9373023,18.5023256 17.1209302,18.4381395 17.3056744,18.4465116 C17.472,18.4347907 17.6500465,18.4939535 17.7890233,18.616186 L23.5585116,23.6946977 L29.7454884,17.8861395 L27.8952558,16.0219535 C27.7233488,15.8483721 27.6569302,15.5966512 27.7205581,15.3605581 C27.7847442,15.1250233 27.9694884,14.9413953 28.2061395,14.8788837 L34.8106047,13.1369302 C35.0466977,13.0749767 35.2984186,13.1430698 35.4703256,13.3166512 C35.6422326,13.4902326 35.7086512,13.7425116 35.6450233,13.9780465 L33.8506047,20.5668837 C33.7864186,20.8024186 33.6011163,20.9860465 33.3650233,21.0485581 C33.1283721,21.1110698 32.8766512,21.0424186 32.7053023,20.8688372 L30.7088372,18.8573023 L24.040186,25.1162791 C23.7828837,25.3573953 23.3849302,25.3635349 23.1203721,25.1307907 L17.3274419,20.0316279 L9.52074419,27.6530233 C9.38790698,27.7825116 9.21544186,27.847814 9.04297674,27.847814 Z M29.6997209,15.8986047 L30.1970233,16.399814 L30.1970233,16.399814 L32.8414884,19.0643721 L34.0135814,14.7611163 L29.6997209,15.8986047 Z"/>
</svg>
