<svg xmlns="http://www.w3.org/2000/svg" width="47" height="48" viewBox="0 0 47 48">
  <g fill="none">
    <path stroke="#000" stroke-width="2" d="M19.7634286,46.9028571 C19.9265021,46.9028571 20.0787613,46.8263126 20.1753636,46.6924093 L25.860052,38.9105269 L26.2931759,38.8594525 C37.1204886,37.5826829 45.1154286,29.7329401 45.1154286,20.4651429 C45.1154286,10.2609515 35.3378998,1.89028571 23.2514286,1.89028571 C11.1649573,1.89028571 1.38742857,10.2609515 1.38742857,20.4651429 C1.38742857,29.1893704 8.42068274,36.6852592 18.4354532,38.5843662 L19.2491429,38.7386667 L19.2491429,46.3897143 C19.2491429,46.6116035 19.3923194,46.808792 19.6035965,46.8777965 C19.654556,46.8944055 19.7086072,46.9028571 19.7634286,46.9028571 Z"/>
    <path fill="#000" d="M16.4068571,17.9405714 C17.7165714,17.9405714 18.7782857,19.0011429 18.7782857,20.312 C18.7782857,21.6217143 17.7165714,22.6834286 16.4068571,22.6834286 C15.0971429,22.6834286 14.0354286,21.6217143 14.0354286,20.312 C14.0354286,19.0022857 15.0971429,17.9405714 16.4068571,17.9405714 Z M23.584,17.9405714 C24.8937143,17.9405714 25.9554286,19.0011429 25.9554286,20.312 C25.9554286,21.6217143 24.8937143,22.6834286 23.584,22.6834286 C22.2742857,22.6834286 21.2125714,21.6217143 21.2125714,20.312 C21.2125714,19.0022857 22.2742857,17.9405714 23.584,17.9405714 Z M30.7622857,17.9405714 C32.072,17.9405714 33.1325714,19.0011429 33.1337143,20.312 C33.1337143,21.6217143 32.072,22.6834286 30.7622857,22.6834286 C29.4525714,22.6834286 28.3908571,21.6217143 28.3908571,20.312 C28.3908571,19.0022857 29.4525714,17.9405714 30.7622857,17.9405714 Z"/>
  </g>
</svg>
