<svg xmlns="http://www.w3.org/2000/svg" width="48" height="41" viewBox="0 0 48 41">
  <g fill="none" fill-rule="evenodd" stroke="#000" stroke-width="2">
    <rect width="46" height="26" x="1" y="1" rx="4"/>
    <path d="M25.4192218,11.9798582 C25.3811113,11.9212266 25.3311258,11.8712411 25.2724942,11.8331306 C25.0409644,11.6826362 24.7312726,11.7483284 24.5807782,11.9798582 L20.8448073,17.7275058 C20.7920889,17.808611 20.7640291,17.903267 20.7640291,18 C20.7640291,18.2761424 20.9878867,18.5 21.2640291,18.5 L28.7359709,18.5 C28.8327039,18.5 28.92736,18.4719401 29.0084651,18.4192218 C29.2399949,18.2687274 29.3056871,17.9590356 29.1551927,17.7275058 L25.4192218,11.9798582 Z" transform="rotate(90 25 14.5)"/>
    <path d="M13.0242435,36 L44,36 L13.0484585,35.9988252 L13.0242435,36 Z M12.0817567,36 L11.9207459,35.2027712 C11.5470657,33.3525308 9.91224668,32 8,32 C5.790861,32 4,33.790861 4,36 C4,38.209139 5.790861,40 8,40 C9.91224668,40 11.5470657,38.6474692 11.9207459,36.7972288 L12.0817567,36 Z"/>
  </g>
</svg>
